<?xml version="1.0" encoding="utf-8"?>
<!-- Generator: Adobe Illustrator 19.2.1, SVG Export Plug-In . SVG Version: 6.00 Build 0)  -->
<svg version="1.1" id="Layer_1" xmlns="http://www.w3.org/2000/svg" xmlns:xlink="http://www.w3.org/1999/xlink" x="0px" y="0px"
	 viewBox="0 0 320 90" style="enable-background:new 0 0 320 90;" xml:space="preserve">
<style type="text/css">
	.st0{fill:#FFFFFF;}
</style>
<g>
	<g>
		<path class="st0" d="M96.1,1.3V16h12.2V1.3h8.5v37.6h-8.5V23.1H96.1v15.8h-8.5V1.3H96.1z"/>
		<path class="st0" d="M150.1,1.3v7h-16.2v8h10.9v6.9h-10.9v8.6h17v7h-25.5V1.3H150.1z"/>
		<path class="st0" d="M181.5,1.3v7h-16.2v8h10.9v6.9h-10.9v8.6h17v7h-25.5V1.3H181.5z"/>
		<path class="st0" d="M196.8,1.3v30.4h14.7v7.2h-23.2V1.3H196.8z"/>
		<path class="st0" d="M215.7,32.4c0.8,0.1,1.5,0.1,2,0.1c1.3,0,2.3-0.2,3.1-0.5c0.8-0.3,1.4-0.8,1.9-1.4c0.4-0.6,0.8-1.5,0.9-2.5
			c0.2-1,0.3-2.2,0.3-3.7V1.3h8.5V26c0,1.9-0.2,3.6-0.5,5.2c-0.3,1.6-1,3.1-2,4.3c-1,1.2-2.4,2.2-4.3,2.9s-4.3,1-7.4,1
			c-1,0-2-0.1-3-0.3c-1-0.2-1.9-0.4-2.5-0.7l1-6.6C214.3,32.1,214.9,32.3,215.7,32.4z"/>
	</g>
	<g>
		<path class="st0" d="M8,54.8v4.9H12v-4.9h2.8v12.5H12v-5.3H8v5.3H5.2V54.8H8z"/>
		<path class="st0" d="M20.3,67.2c-0.6-0.2-1.2-0.6-1.7-1c-0.5-0.5-0.8-1.2-1.1-2c-0.3-0.8-0.4-1.9-0.4-3.1c0-1.2,0.1-2.2,0.4-3.1
			c0.3-0.8,0.7-1.5,1.2-2s1-0.9,1.7-1.1c0.6-0.2,1.3-0.3,2-0.3c0.8,0,1.4,0.1,2.1,0.3s1.2,0.6,1.7,1c0.5,0.5,0.8,1.2,1.1,2
			s0.4,1.9,0.4,3.1c0,1.2-0.1,2.2-0.4,3.1c-0.3,0.8-0.7,1.5-1.2,2c-0.5,0.5-1,0.9-1.7,1.1s-1.3,0.3-2,0.3
			C21.6,67.5,20.9,67.4,20.3,67.2z M23.4,65c0.3-0.1,0.5-0.3,0.7-0.6c0.2-0.3,0.3-0.7,0.4-1.3s0.1-1.2,0.1-2.1s0-1.6-0.1-2.1
			s-0.2-1-0.4-1.3c-0.2-0.3-0.4-0.5-0.7-0.6c-0.3-0.1-0.6-0.2-1-0.2c-0.4,0-0.8,0.1-1.1,0.2c-0.3,0.1-0.5,0.3-0.7,0.6
			c-0.2,0.3-0.3,0.7-0.4,1.3c-0.1,0.5-0.1,1.2-0.1,2.1s0,1.6,0.1,2.1c0.1,0.5,0.2,1,0.4,1.3c0.2,0.3,0.4,0.5,0.7,0.6
			c0.3,0.1,0.6,0.2,1,0.2C22.8,65.2,23.1,65.1,23.4,65z"/>
		<path class="st0" d="M31,64.9c0.5,0.2,1.1,0.3,1.7,0.3c0.5,0,0.9-0.1,1.2-0.3c0.3-0.2,0.5-0.5,0.5-0.9c0-0.4-0.1-0.7-0.3-0.9
			c-0.2-0.2-0.5-0.4-0.9-0.5l-1.3-0.5c-0.9-0.3-1.6-0.8-2.1-1.4c-0.5-0.6-0.8-1.4-0.8-2.3c0-0.6,0.1-1.2,0.3-1.6
			c0.2-0.5,0.5-0.9,0.9-1.2c0.4-0.3,0.8-0.6,1.3-0.7c0.5-0.2,1-0.3,1.6-0.3c0.7,0,1.4,0.1,2.1,0.2s1.2,0.3,1.6,0.6l-0.8,2.3
			c-0.2-0.1-0.3-0.2-0.6-0.2c-0.2-0.1-0.5-0.2-0.7-0.2c-0.3-0.1-0.5-0.1-0.8-0.2c-0.3,0-0.5-0.1-0.7-0.1c-0.4,0-0.8,0.1-1,0.3
			c-0.3,0.2-0.4,0.5-0.4,0.9c0,0.4,0.1,0.7,0.3,0.9c0.2,0.2,0.5,0.4,1,0.6l1.6,0.7c0.8,0.3,1.4,0.7,1.9,1.3c0.5,0.5,0.7,1.2,0.7,2.1
			c0,0.7-0.1,1.2-0.3,1.7s-0.5,0.9-0.9,1.2s-0.9,0.6-1.5,0.8s-1.2,0.3-1.9,0.3c-0.9,0-1.6-0.1-2.3-0.3c-0.7-0.2-1.2-0.4-1.6-0.7
			l0.8-2.1C30,64.6,30.5,64.8,31,64.9z"/>
		<path class="st0" d="M44.1,54.8c1.5,0,2.5,0.3,3.2,1c0.7,0.7,1,1.7,1,3c0,1.3-0.3,2.4-1,3.1c-0.7,0.7-1.8,1.1-3.2,1.1h-1.7v4.3
			h-2.8V54.8H44.1z M44.3,60.6c0.2,0,0.5-0.1,0.6-0.3c0.2-0.1,0.3-0.3,0.4-0.5s0.1-0.5,0.1-0.9c0-0.3,0-0.6-0.1-0.9
			c-0.1-0.2-0.2-0.4-0.4-0.5c-0.2-0.1-0.4-0.2-0.6-0.3c-0.2,0-0.5-0.1-0.9-0.1h-1.1v3.5h1.1C43.8,60.6,44.1,60.6,44.3,60.6z"/>
		<path class="st0" d="M53.1,54.8v12.5h-2.8V54.8H53.1z"/>
		<path class="st0" d="M54.7,57.1v-2.4h9.3v2.4h-3.3v10.2h-2.8V57.1H54.7z"/>
		<path class="st0" d="M68,54.8h3.4l3.9,12.3v0.3h-2.9l-0.8-2.6h-4.1l-0.8,2.6h-2.7v-0.3L68,54.8z M69.6,57.8l-1.4,4.7H71L69.6,57.8
			z"/>
		<path class="st0" d="M79.7,54.8v10.1h4.9v2.4h-7.7V54.8H79.7z"/>
		<path class="st0" d="M98.4,54.8v2.3H93v2.7h3.6v2.3H93V65h5.7v2.3h-8.5V54.8H98.4z"/>
		<path class="st0" d="M102,64.9c0.5,0.2,1.1,0.3,1.7,0.3c0.5,0,0.9-0.1,1.2-0.3c0.3-0.2,0.5-0.5,0.5-0.9c0-0.4-0.1-0.7-0.3-0.9
			c-0.2-0.2-0.5-0.4-0.9-0.5l-1.3-0.5c-0.9-0.3-1.6-0.8-2.1-1.4c-0.5-0.6-0.8-1.4-0.8-2.3c0-0.6,0.1-1.2,0.3-1.6
			c0.2-0.5,0.5-0.9,0.9-1.2c0.4-0.3,0.8-0.6,1.3-0.7c0.5-0.2,1-0.3,1.6-0.3c0.7,0,1.4,0.1,2.1,0.2s1.2,0.3,1.6,0.6l-0.8,2.3
			c-0.2-0.1-0.3-0.2-0.6-0.2c-0.2-0.1-0.5-0.2-0.7-0.2c-0.3-0.1-0.5-0.1-0.8-0.2c-0.3,0-0.5-0.1-0.7-0.1c-0.4,0-0.8,0.1-1,0.3
			c-0.3,0.2-0.4,0.5-0.4,0.9c0,0.4,0.1,0.7,0.3,0.9c0.2,0.2,0.5,0.4,1,0.6l1.6,0.7c0.8,0.3,1.4,0.7,1.9,1.3c0.5,0.5,0.7,1.2,0.7,2.1
			c0,0.7-0.1,1.2-0.3,1.7s-0.5,0.9-0.9,1.2s-0.9,0.6-1.5,0.8s-1.2,0.3-1.9,0.3c-0.9,0-1.6-0.1-2.3-0.3c-0.7-0.2-1.2-0.4-1.6-0.7
			l0.8-2.1C101.1,64.6,101.5,64.8,102,64.9z"/>
		<path class="st0" d="M109.2,57.1v-2.4h9.3v2.4h-3.3v10.2h-2.8V57.1H109.2z"/>
		<path class="st0" d="M121.8,54.8h3.4l3.9,12.3v0.3h-2.9l-0.8-2.6h-4.1l-0.8,2.6h-2.7v-0.3L121.8,54.8z M123.4,57.8l-1.4,4.7h2.8
			L123.4,57.8z"/>
		<path class="st0" d="M134.9,54.8c0.7,0,1.4,0.1,2.1,0.3s1.3,0.5,1.8,1c0.5,0.5,0.9,1.1,1.2,1.9c0.3,0.8,0.5,1.8,0.5,3.1
			s-0.2,2.3-0.5,3.1c-0.3,0.8-0.7,1.4-1.2,1.9c-0.5,0.5-1.1,0.8-1.8,1s-1.4,0.3-2.1,0.3h-4.2V54.8H134.9z M135.6,64.8
			c0.4-0.1,0.7-0.3,1-0.5c0.3-0.3,0.5-0.7,0.6-1.2c0.1-0.5,0.2-1.2,0.2-2.1s-0.1-1.6-0.2-2.1c-0.1-0.5-0.4-0.9-0.6-1.2
			c-0.3-0.3-0.6-0.4-1-0.5c-0.4-0.1-0.8-0.1-1.3-0.1h-0.8V65h0.8C134.8,65,135.3,64.9,135.6,64.8z"/>
		<path class="st0" d="M145.3,54.8v7.6c0,0.6,0,1.1,0.1,1.4c0.1,0.4,0.2,0.6,0.4,0.8c0.2,0.2,0.4,0.3,0.6,0.4c0.3,0.1,0.6,0.1,1,0.1
			c0.4,0,0.7,0,0.9-0.1c0.3-0.1,0.5-0.2,0.6-0.4c0.2-0.2,0.3-0.5,0.3-0.9c0.1-0.4,0.1-0.8,0.1-1.4v-7.6h2.9v7.9c0,1-0.1,1.8-0.4,2.4
			c-0.3,0.6-0.6,1.1-1.1,1.5c-0.4,0.4-1,0.6-1.6,0.8c-0.6,0.1-1.2,0.2-1.9,0.2c-0.7,0-1.3-0.1-1.9-0.2s-1.1-0.4-1.6-0.7
			c-0.4-0.3-0.8-0.8-1-1.5c-0.2-0.6-0.4-1.5-0.4-2.5v-7.9H145.3z"/>
		<path class="st0" d="M157.4,54.8h3.4l3.9,12.3v0.3h-2.9l-0.8-2.6H157l-0.8,2.6h-2.7v-0.3L157.4,54.8z M159,57.8l-1.4,4.7h2.8
			L159,57.8z"/>
		<path class="st0" d="M169.1,54.8v10.1h4.9v2.4h-7.7V54.8H169.1z"/>
		<path class="st0" d="M183.7,54.8c0.7,0,1.4,0.1,2.1,0.3c0.7,0.2,1.3,0.5,1.8,1c0.5,0.5,0.9,1.1,1.2,1.9c0.3,0.8,0.5,1.8,0.5,3.1
			s-0.2,2.3-0.5,3.1c-0.3,0.8-0.7,1.4-1.2,1.9c-0.5,0.5-1.1,0.8-1.8,1c-0.7,0.2-1.4,0.3-2.1,0.3h-4.2V54.8H183.7z M184.5,64.8
			c0.4-0.1,0.7-0.3,1-0.5c0.3-0.3,0.5-0.7,0.6-1.2c0.1-0.5,0.2-1.2,0.2-2.1s-0.1-1.6-0.2-2.1c-0.1-0.5-0.4-0.9-0.6-1.2
			c-0.3-0.3-0.6-0.4-1-0.5c-0.4-0.1-0.8-0.1-1.3-0.1h-0.8V65h0.8C183.7,65,184.1,64.9,184.5,64.8z"/>
		<path class="st0" d="M199.8,54.8v2.3h-5.4v2.7h3.6v2.3h-3.6V65h5.7v2.3h-8.5V54.8H199.8z"/>
		<path class="st0" d="M210.5,54.8c1.5,0,2.5,0.3,3.2,1c0.7,0.7,1,1.7,1,3c0,1.3-0.3,2.4-1,3.1c-0.7,0.7-1.8,1.1-3.2,1.1h-1.7v4.3
			h-2.8V54.8H210.5z M210.7,60.6c0.2,0,0.5-0.1,0.6-0.3s0.3-0.3,0.4-0.5c0.1-0.2,0.1-0.5,0.1-0.9c0-0.3,0-0.6-0.1-0.9
			c-0.1-0.2-0.2-0.4-0.4-0.5c-0.2-0.1-0.4-0.2-0.6-0.3c-0.2,0-0.5-0.1-0.9-0.1h-1.1v3.5h1.1C210.2,60.6,210.5,60.6,210.7,60.6z"/>
		<path class="st0" d="M219.5,54.8v12.5h-2.8V54.8H219.5z"/>
		<path class="st0" d="M226.9,54.8c1.5,0,2.5,0.3,3.2,1c0.7,0.7,1.1,1.7,1.1,3c0,1.7-0.6,2.9-1.9,3.5l2.9,4.7v0.3H229l-2.5-4.4h-1.4
			v4.4h-2.8V54.8H226.9z M227.1,60.5c0.2,0,0.5-0.1,0.6-0.3s0.3-0.3,0.4-0.5s0.1-0.5,0.1-0.9c0-0.3,0-0.6-0.1-0.9
			c-0.1-0.2-0.2-0.4-0.4-0.5c-0.2-0.1-0.4-0.2-0.6-0.3c-0.2,0-0.5-0.1-0.9-0.1h-1v3.5h1C226.6,60.6,226.8,60.5,227.1,60.5z"/>
		<path class="st0" d="M242,54.8v2.3h-5.4v2.7h3.6v2.3h-3.6V65h5.7v2.3h-8.5V54.8H242z"/>
		<path class="st0" d="M246.8,54.8l4.9,7.5v-7.5h2.6v12.5h-2.4l-4.9-7.7v7.7h-2.6V54.8H246.8z"/>
		<path class="st0" d="M259.7,67.2c-0.6-0.2-1.2-0.6-1.7-1s-0.8-1.2-1.1-2c-0.3-0.8-0.4-1.9-0.4-3.1c0-1.2,0.1-2.2,0.4-3.1
			c0.3-0.8,0.7-1.5,1.2-2c0.5-0.5,1-0.9,1.7-1.1c0.6-0.2,1.3-0.3,2-0.3c0.8,0,1.4,0.1,2.1,0.3s1.2,0.6,1.7,1c0.5,0.5,0.8,1.2,1.1,2
			c0.3,0.8,0.4,1.9,0.4,3.1c0,1.2-0.1,2.2-0.4,3.1c-0.3,0.8-0.7,1.5-1.2,2c-0.5,0.5-1,0.9-1.7,1.1c-0.6,0.2-1.3,0.3-2,0.3
			C261,67.5,260.3,67.4,259.7,67.2z M264,50.3h0.3v2.2l-4.7,1.5h-0.3v-1.6L264,50.3z M262.8,65c0.3-0.1,0.5-0.3,0.7-0.6
			c0.2-0.3,0.3-0.7,0.4-1.3s0.1-1.2,0.1-2.1s0-1.6-0.1-2.1s-0.2-1-0.4-1.3c-0.2-0.3-0.4-0.5-0.7-0.6c-0.3-0.1-0.6-0.2-1-0.2
			c-0.4,0-0.8,0.1-1.1,0.2c-0.3,0.1-0.5,0.3-0.7,0.6c-0.2,0.3-0.3,0.7-0.4,1.3s-0.1,1.2-0.1,2.1s0,1.6,0.1,2.1s0.2,1,0.4,1.3
			c0.2,0.3,0.4,0.5,0.7,0.6c0.3,0.1,0.6,0.2,1,0.2C262.2,65.2,262.5,65.1,262.8,65z"/>
		<path class="st0" d="M273.8,54.8c1.5,0,2.5,0.3,3.2,1c0.7,0.7,1,1.7,1,3c0,1.3-0.3,2.4-1,3.1c-0.7,0.7-1.8,1.1-3.2,1.1h-1.7v4.3
			h-2.8V54.8H273.8z M274.1,60.6c0.2,0,0.5-0.1,0.6-0.3s0.3-0.3,0.4-0.5c0.1-0.2,0.1-0.5,0.1-0.9c0-0.3,0-0.6-0.1-0.9
			c-0.1-0.2-0.2-0.4-0.4-0.5c-0.2-0.1-0.4-0.2-0.6-0.3c-0.2,0-0.5-0.1-0.9-0.1h-1.1v3.5h1.1C273.5,60.6,273.8,60.6,274.1,60.6z"/>
		<path class="st0" d="M282.5,67.2c-0.6-0.2-1.2-0.6-1.7-1s-0.8-1.2-1.1-2c-0.3-0.8-0.4-1.9-0.4-3.1c0-1.2,0.1-2.2,0.4-3.1
			c0.3-0.8,0.7-1.5,1.2-2c0.5-0.5,1-0.9,1.7-1.1c0.6-0.2,1.3-0.3,2-0.3c0.8,0,1.4,0.1,2.1,0.3s1.2,0.6,1.7,1c0.5,0.5,0.8,1.2,1.1,2
			c0.3,0.8,0.4,1.9,0.4,3.1c0,1.2-0.1,2.2-0.4,3.1c-0.3,0.8-0.7,1.5-1.2,2c-0.5,0.5-1,0.9-1.7,1.1c-0.6,0.2-1.3,0.3-2,0.3
			C283.8,67.5,283.1,67.4,282.5,67.2z M285.6,65c0.3-0.1,0.5-0.3,0.7-0.6c0.2-0.3,0.3-0.7,0.4-1.3s0.1-1.2,0.1-2.1s0-1.6-0.1-2.1
			s-0.2-1-0.4-1.3c-0.2-0.3-0.4-0.5-0.7-0.6c-0.3-0.1-0.6-0.2-1-0.2c-0.4,0-0.8,0.1-1.1,0.2c-0.3,0.1-0.5,0.3-0.7,0.6
			c-0.2,0.3-0.3,0.7-0.4,1.3s-0.1,1.2-0.1,2.1s0,1.6,0.1,2.1s0.2,1,0.4,1.3c0.2,0.3,0.4,0.5,0.7,0.6c0.3,0.1,0.6,0.2,1,0.2
			C285,65.2,285.3,65.1,285.6,65z"/>
		<path class="st0" d="M294.9,54.8v10.1h4.9v2.4h-7.7V54.8H294.9z"/>
		<path class="st0" d="M304.4,54.8v12.5h-2.8V54.8H304.4z"/>
		<path class="st0" d="M308.4,64.9c0.5,0.2,1.1,0.3,1.7,0.3c0.5,0,0.9-0.1,1.2-0.3c0.3-0.2,0.5-0.5,0.5-0.9c0-0.4-0.1-0.7-0.3-0.9
			s-0.5-0.4-0.9-0.5l-1.3-0.5c-0.9-0.3-1.6-0.8-2.1-1.4s-0.8-1.4-0.8-2.3c0-0.6,0.1-1.2,0.3-1.6c0.2-0.5,0.5-0.9,0.9-1.2
			c0.4-0.3,0.8-0.6,1.3-0.7c0.5-0.2,1-0.3,1.6-0.3c0.7,0,1.4,0.1,2.1,0.2s1.2,0.3,1.6,0.6l-0.8,2.3c-0.2-0.1-0.3-0.2-0.6-0.2
			s-0.5-0.2-0.7-0.2s-0.5-0.1-0.8-0.2c-0.3,0-0.5-0.1-0.7-0.1c-0.4,0-0.8,0.1-1,0.3c-0.3,0.2-0.4,0.5-0.4,0.9c0,0.4,0.1,0.7,0.3,0.9
			c0.2,0.2,0.5,0.4,1,0.6l1.6,0.7c0.8,0.3,1.4,0.7,1.9,1.3c0.5,0.5,0.7,1.2,0.7,2.1c0,0.7-0.1,1.2-0.3,1.7s-0.5,0.9-0.9,1.2
			s-0.9,0.6-1.5,0.8c-0.6,0.2-1.2,0.3-1.9,0.3c-0.9,0-1.6-0.1-2.3-0.3c-0.7-0.2-1.2-0.4-1.6-0.7l0.8-2.1
			C307.4,64.6,307.9,64.8,308.4,64.9z"/>
	</g>
	<g>
		<path class="st0" d="M70,76.2v1.3h-5.9v4.1h4.2v1.3h-4.2v4.4h6.1v1.3h-7.6V76.2H70z"/>
		<path class="st0" d="M75.9,76.2c0.6,0,1.1,0.1,1.6,0.2s0.9,0.4,1.3,0.7c0.4,0.3,0.6,0.7,0.8,1.2c0.2,0.5,0.3,1,0.3,1.7
			c0,0.9-0.2,1.7-0.6,2.2c-0.4,0.5-0.9,1-1.6,1.2l3.1,5v0.2h-1.6l-2.9-4.9c-0.1,0-0.2,0-0.3,0h-1.8v4.8h-1.5V76.2H75.9z M77.7,81.9
			c0.4-0.4,0.7-1,0.7-1.9c0-0.9-0.2-1.5-0.7-1.9c-0.4-0.4-1.1-0.6-2-0.6h-1.5v4.9h1.5C76.6,82.4,77.3,82.2,77.7,81.9z"/>
		<path class="st0" d="M84.9,76.2l5.9,10v-10h1.4v12.4h-1.5l-6.1-10.2v10.2h-1.4V76.2H84.9z"/>
		<path class="st0" d="M103.3,76.2v1.3h-5.9v4.1h4.2v1.3h-4.2v4.4h6.1v1.3h-7.6V76.2H103.3z"/>
		<path class="st0" d="M106.8,87.1c0.5,0.2,1.1,0.3,1.7,0.3c0.3,0,0.6,0,0.9-0.1c0.3-0.1,0.5-0.2,0.8-0.4c0.2-0.2,0.4-0.4,0.5-0.6
			c0.1-0.3,0.2-0.6,0.2-0.9c0-0.6-0.1-1-0.4-1.3c-0.3-0.3-0.7-0.5-1.3-0.8l-1.1-0.4c-0.9-0.3-1.6-0.8-2.1-1.3
			c-0.5-0.5-0.8-1.2-0.8-2.1c0-0.6,0.1-1.1,0.3-1.5c0.2-0.4,0.4-0.8,0.8-1.1s0.7-0.5,1.2-0.7c0.5-0.1,1-0.2,1.5-0.2
			c0.7,0,1.2,0.1,1.8,0.2c0.5,0.1,1,0.3,1.4,0.5l-0.5,1.3c-0.3-0.2-0.7-0.3-1.3-0.5s-1-0.2-1.5-0.2c-0.6,0-1.1,0.1-1.5,0.4
			c-0.4,0.3-0.6,0.8-0.6,1.4c0,0.5,0.1,1,0.4,1.3c0.3,0.3,0.7,0.6,1.3,0.9L110,82c0.8,0.3,1.5,0.7,1.9,1.2c0.4,0.5,0.6,1.1,0.6,2
			c0,1.1-0.4,2-1.1,2.7s-1.7,0.9-3,0.9c-0.7,0-1.4-0.1-2-0.3c-0.6-0.2-1.1-0.4-1.5-0.7l0.5-1.2C105.8,86.7,106.3,86.9,106.8,87.1z"
			/>
		<path class="st0" d="M113.8,77.5v-1.3h8.3v1.3h-3.4v11h-1.5v-11H113.8z"/>
		<path class="st0" d="M125.7,76.2v12.4h-1.5V76.2H125.7z"/>
		<path class="st0" d="M131.1,76.2l5.9,10v-10h1.4v12.4H137l-6.1-10.2v10.2h-1.4V76.2H131.1z"/>
		<path class="st0" d="M144.6,76.2h1.9l3.9,12.2v0.2h-1.5l-1.1-3.4h-4.5l-1.1,3.4h-1.4v-0.2L144.6,76.2z M145.5,77.8l-1.9,6h3.8
			L145.5,77.8z"/>
		<path class="st0" d="M158.5,76.2v11h5.3v1.3H157V76.2H158.5z"/>
		<path class="st0" d="M168.1,88.4c-0.6-0.2-1.1-0.6-1.5-1.1s-0.8-1.1-1-2c-0.2-0.8-0.4-1.8-0.4-3c0-1.2,0.1-2.2,0.4-3
			c0.3-0.8,0.6-1.5,1-2c0.4-0.5,1-0.9,1.5-1.1c0.6-0.2,1.2-0.3,1.9-0.3c0.7,0,1.3,0.1,1.9,0.3c0.6,0.2,1.1,0.6,1.5,1.1
			c0.4,0.5,0.8,1.1,1,2c0.2,0.8,0.4,1.8,0.4,3c0,1.2-0.1,2.2-0.4,3c-0.3,0.8-0.6,1.5-1,2s-1,0.9-1.5,1.1s-1.2,0.3-1.9,0.3
			C169.3,88.7,168.7,88.6,168.1,88.4z M171.4,87.2c0.4-0.2,0.7-0.5,1-0.9s0.5-0.9,0.6-1.5s0.2-1.4,0.2-2.4c0-0.9-0.1-1.7-0.2-2.4
			c-0.1-0.6-0.4-1.2-0.6-1.5c-0.3-0.4-0.6-0.7-1-0.8c-0.4-0.2-0.9-0.3-1.4-0.3c-0.5,0-1,0.1-1.4,0.3c-0.4,0.2-0.7,0.5-1,0.8
			c-0.3,0.4-0.5,0.9-0.6,1.5c-0.1,0.6-0.2,1.4-0.2,2.4c0,0.9,0.1,1.7,0.2,2.4c0.1,0.6,0.4,1.2,0.6,1.5s0.6,0.7,1,0.9
			c0.4,0.2,0.9,0.3,1.4,0.3C170.6,87.4,171,87.3,171.4,87.2z"/>
		<path class="st0" d="M181.3,76.2c0.6,0,1.1,0.1,1.6,0.2c0.5,0.1,0.9,0.4,1.2,0.7c0.3,0.3,0.6,0.7,0.8,1.2c0.2,0.5,0.3,1.1,0.3,1.7
			c0,0.7-0.1,1.2-0.3,1.7s-0.4,0.9-0.8,1.2c-0.3,0.3-0.8,0.5-1.2,0.7c-0.5,0.1-1,0.2-1.6,0.2h-2v4.8h-1.5V76.2H181.3z M183,81.9
			c0.4-0.4,0.6-1,0.6-1.9c0-0.9-0.2-1.5-0.6-1.9c-0.4-0.4-1-0.6-1.9-0.6h-1.8v5h1.8C182,82.5,182.6,82.3,183,81.9z"/>
		<path class="st0" d="M195,76.2v1.3h-5.9v4.1h4.2v1.3h-4.2v4.4h6.1v1.3h-7.6V76.2H195z"/>
		<path class="st0" d="M198.4,87.1c0.5,0.2,1.1,0.3,1.7,0.3c0.3,0,0.6,0,0.9-0.1c0.3-0.1,0.5-0.2,0.8-0.4c0.2-0.2,0.4-0.4,0.5-0.6
			c0.1-0.3,0.2-0.6,0.2-0.9c0-0.6-0.1-1-0.4-1.3c-0.3-0.3-0.7-0.5-1.3-0.8l-1.1-0.4c-0.9-0.3-1.6-0.8-2.1-1.3
			c-0.5-0.5-0.8-1.2-0.8-2.1c0-0.6,0.1-1.1,0.3-1.5s0.4-0.8,0.8-1.1s0.7-0.5,1.2-0.7c0.5-0.1,1-0.2,1.5-0.2c0.7,0,1.2,0.1,1.8,0.2
			c0.5,0.1,1,0.3,1.4,0.5l-0.5,1.3c-0.3-0.2-0.8-0.3-1.3-0.5s-1-0.2-1.5-0.2c-0.6,0-1.1,0.1-1.5,0.4c-0.4,0.3-0.6,0.8-0.6,1.4
			c0,0.5,0.1,1,0.4,1.3c0.3,0.3,0.7,0.6,1.3,0.9l1.6,0.6c0.8,0.3,1.5,0.7,1.9,1.2c0.4,0.5,0.6,1.1,0.6,2c0,1.1-0.4,2-1.1,2.7
			c-0.7,0.6-1.7,0.9-3,0.9c-0.7,0-1.4-0.1-2-0.3c-0.6-0.2-1.1-0.4-1.5-0.7l0.5-1.2C197.5,86.7,197.9,86.9,198.4,87.1z"/>
		<path class="st0" d="M210.6,87.4c0.2,0,0.4,0,0.6,0c0.5,0,1-0.1,1.3-0.2c0.3-0.1,0.6-0.3,0.8-0.6c0.2-0.3,0.3-0.6,0.4-1
			c0.1-0.4,0.1-0.9,0.1-1.4v-8.1h1.5v8.5c0,0.6-0.1,1.2-0.2,1.7c-0.1,0.5-0.3,0.9-0.6,1.3c-0.3,0.4-0.7,0.6-1.2,0.8
			c-0.5,0.2-1.2,0.3-2,0.3c-0.3,0-0.6,0-0.8-0.1s-0.5-0.1-0.7-0.2l0.2-1.2C210.2,87.3,210.4,87.4,210.6,87.4z"/>
		<path class="st0" d="M221.3,76.2h1.9l3.9,12.2v0.2h-1.5l-1.1-3.4h-4.5l-1.1,3.4h-1.4v-0.2L221.3,76.2z M222.2,77.8l-1.9,6h3.8
			L222.2,77.8z"/>
		<path class="st0" d="M230.9,76.2v12.4h-1.5V76.2H230.9z"/>
		<path class="st0" d="M236.9,76.2l3.5,8.7l3.6-8.7h2.1v12.4h-1.4V77.9l-3.8,8.9h-1.1l-3.8-8.9v10.7h-1.4V76.2H236.9z"/>
		<path class="st0" d="M257.2,76.2v1.3h-5.9v4.1h4.2v1.3h-4.2v4.4h6.1v1.3h-7.6V76.2H257.2z"/>
	</g>
</g>
</svg>
